<?xml version="1.0" encoding="UTF-8" standalone="no"?>
<svg
   version="1.0"
   width="128.000000pt"
   height="128.000000pt"
   viewBox="0 0 128.000000 128.000000"
   preserveAspectRatio="xMidYMid meet"
   id="svg16"
   sodipodi:docname="xastir.svg"
   inkscape:version="1.2.2 (b0a8486541, 2022-12-01)"
   xmlns:inkscape="http://www.inkscape.org/namespaces/inkscape"
   xmlns:sodipodi="http://sodipodi.sourceforge.net/DTD/sodipodi-0.dtd"
   xmlns="http://www.w3.org/2000/svg"
   xmlns:svg="http://www.w3.org/2000/svg">
  <defs
     id="defs20" />
  <sodipodi:namedview
     id="namedview18"
     pagecolor="#ffffff"
     bordercolor="#000000"
     borderopacity="0.25"
     inkscape:showpageshadow="2"
     inkscape:pageopacity="0.0"
     inkscape:pagecheckerboard="0"
     inkscape:deskcolor="#d1d1d1"
     inkscape:document-units="pt"
     showgrid="false"
     inkscape:zoom="4.5820313"
     inkscape:cx="85.333332"
     inkscape:cy="85.333332"
     inkscape:window-width="1920"
     inkscape:window-height="1011"
     inkscape:window-x="0"
     inkscape:window-y="0"
     inkscape:window-maximized="1"
     inkscape:current-layer="svg16" />
  <metadata
     id="metadata2">
Created by potrace 1.16, written by Peter Selinger 2001-2019
</metadata>
  <rect
     style="fill:#ffffff;stroke-width:0.740582"
     id="rect178"
     width="128"
     height="128"
     x="-1.110223e-16"
     y="-4.4408921e-16" />
  <g
     transform="translate(0.000000,128.000000) scale(0.100000,-0.100000)"
     fill="#000000"
     stroke="none"
     id="g14">
    <path
       d="M730 1230 c0 -11 6 -20 13 -20 8 0 26 -15 42 -34 26 -31 55 -38 55 -14 0 15 -80 88 -96 88 -8 0 -14 -9 -14 -20z"
       id="path4" />
    <path
       d="M1040 1221 c-14 -17 -30 -30 -36 -31 -18 0 -24 -27 -10 -39 9 -8 20 -2 42 22 16 18 37 36 47 40 10 4 17 13 15 20 -8 23 -33 18 -58 -12z"
       id="path6" />
    <path
       d="M890 958 c1 -73 1 -139 1 -146 -1 -10 -22 -13 -87 -11 l-86 2 -74 -71 c-41 -38 -74 -73 -74 -76 0 -3 -16 -22 -36 -42 l-37 -36 -209 1 -210 2 -25 -27 c-24 -26 -25 -32 -21 -112 4 -76 3 -85 -14 -90 -12 -3 -18 -14 -18 -33 0 -24 4 -28 33 -31 30 -3 32 -5 32 -43 0 -35 7 -47 55 -94 51 -51 58 -55 105 -56 48 0 52 2 105 55 37 37 55 63 55 80 l0 25 225 0 225 0 -3 -23 c-3 -17 11 -37 55 -79 54 -53 61 -56 111 -58 28 -1 52 2 52 6 0 11 79 89 90 89 5 0 10 16 10 35 l0 35 65 0 65 0 0 29 c0 20 -6 31 -17 33 -15 3 -16 20 -15 156 2 127 0 154 -13 158 -8 4 -15 19 -15 35 0 15 -6 32 -14 36 -8 4 -16 26 -18 48 l-3 40 -127 3 -128 3 0 144 c0 139 -1 145 -20 145 -20 0 -21 -5 -20 -132z m35 -353 c0 -136 -2 -160 -15 -160 -12 0 -15 17 -15 90 0 50 -4 96 -8 103 -16 25 -27 0 -27 -64 l0 -66 -40 3 c-49 4 -55 -2 -55 -53 l0 -41 -77 -2 c-47 -1 -79 3 -81 9 -5 17 -1 72 7 84 13 21 46 13 56 -14 18 -46 35 -22 37 49 1 58 -1 67 -17 67 -10 0 -20 -9 -23 -20 -7 -26 -34 -25 -63 3 -24 22 -32 47 -14 47 5 0 36 27 69 60 l60 59 83 4 c46 2 92 3 103 3 19 -1 20 -9 20 -161z m223 127 c2 -20 9 -32 18 -32 9 0 14 -12 15 -37 1 -21 2 -56 3 -78 l1 -40 -110 0 -110 0 -3 99 c-1 55 -1 104 1 110 3 7 39 11 93 10 l89 -1 3 -31z"
       id="path8" />
    <path
       d="M766 1019 c-23 -24 -36 -45 -32 -54 8 -22 18 -19 50 20 16 19 35 35 43 35 7 0 13 9 13 20 0 31 -30 22 -74 -21z"
       id="path10" />
    <path
       d="M985 1050 c-6 -10 78 -100 94 -100 22 0 20 50 -2 50 -7 1 -23 14 -37 30 -25 31 -44 38 -55 20z"
       id="path12" />
  </g>
</svg>
